<?xml version="1.0" encoding="UTF-8"?>
<svg xmlns="http://www.w3.org/2000/svg" width="256" height="256" viewBox="0 0 512 512">
  <rect width="512" height="512" fill="#F5F6F8"/>
  <!-- Owl -->
  <g id="owl" transform="translate(0,0)">
    <circle cx="256" cy="260" r="160" fill="#5C7AA0"/>
    <ellipse cx="256" cy="302" rx="95" ry="112" fill="#7A9CC4"/>
    <ellipse cx="256" cy="220" rx="120" ry="95" fill="#FFFFFF"/>
    <!-- ears -->
    <polygon points="136,130 186,70 236,130" fill="#5C7AA0"/>
    <polygon points="376,130 326,70 276,130" fill="#5C7AA0"/>
    <!-- eyes -->
    <g>
      <ellipse cx="196" cy="214" rx="34" ry="34" fill="#202630"/>
      <ellipse cx="196" cy="214" rx="18" ry="18" fill="#FFFFFF"/>
      <ellipse cx="316" cy="214" rx="34" ry="34" fill="#202630"/>
      <ellipse cx="316" cy="214" rx="18" ry="18" fill="#FFFFFF"/>
    </g>
    <!-- beak -->
    <polygon points="256,240 238,278 274,278" fill="#F2A743"/>
  </g>

  <!-- Origami crane -->
  <g id="origami" transform="translate(0,0)">
    <ellipse cx="360" cy="475" rx="145" ry="35" fill="rgba(0,0,0,0.14)"/>
    <polygon points="220,385 340,325 380,355 290,420" fill="#ED6F8A"/>
    <polygon points="340,325 415,355 370,425 290,420" fill="#D15671"/>
    <polygon points="415,355 500,305 480,355 430,375" fill="#ED6F8A"/>
    <polygon points="290,420 240,460 320,450" fill="#D15671"/>
  </g>
</svg>
